<svg id="visual" viewBox="0 0 900 450" width="900" height="450" xmlns="http://www.w3.org/2000/svg" xmlns:xlink="http://www.w3.org/1999/xlink" version="1.1"><rect x="0" y="0" width="900" height="450" fill="#183E9F"></rect><defs><linearGradient id="grad1_0" x1="50%" y1="0%" x2="100%" y2="100%"><stop offset="10%" stop-color="#28aadb" stop-opacity="1"></stop><stop offset="90%" stop-color="#28aadb" stop-opacity="1"></stop></linearGradient></defs><defs><linearGradient id="grad1_1" x1="50%" y1="0%" x2="100%" y2="100%"><stop offset="10%" stop-color="#28aadb" stop-opacity="1"></stop><stop offset="90%" stop-color="#0090d1" stop-opacity="1"></stop></linearGradient></defs><defs><linearGradient id="grad1_2" x1="50%" y1="0%" x2="100%" y2="100%"><stop offset="10%" stop-color="#0076c5" stop-opacity="1"></stop><stop offset="90%" stop-color="#0090d1" stop-opacity="1"></stop></linearGradient></defs><defs><linearGradient id="grad1_3" x1="50%" y1="0%" x2="100%" y2="100%"><stop offset="10%" stop-color="#0076c5" stop-opacity="1"></stop><stop offset="90%" stop-color="#005bb5" stop-opacity="1"></stop></linearGradient></defs><defs><linearGradient id="grad1_4" x1="50%" y1="0%" x2="100%" y2="100%"><stop offset="10%" stop-color="#183e9f" stop-opacity="1"></stop><stop offset="90%" stop-color="#005bb5" stop-opacity="1"></stop></linearGradient></defs><defs><linearGradient id="grad2_0" x1="0%" y1="0%" x2="50%" y2="100%"><stop offset="10%" stop-color="#28aadb" stop-opacity="1"></stop><stop offset="90%" stop-color="#28aadb" stop-opacity="1"></stop></linearGradient></defs><defs><linearGradient id="grad2_1" x1="0%" y1="0%" x2="50%" y2="100%"><stop offset="10%" stop-color="#0090d1" stop-opacity="1"></stop><stop offset="90%" stop-color="#28aadb" stop-opacity="1"></stop></linearGradient></defs><defs><linearGradient id="grad2_2" x1="0%" y1="0%" x2="50%" y2="100%"><stop offset="10%" stop-color="#0090d1" stop-opacity="1"></stop><stop offset="90%" stop-color="#0076c5" stop-opacity="1"></stop></linearGradient></defs><defs><linearGradient id="grad2_3" x1="0%" y1="0%" x2="50%" y2="100%"><stop offset="10%" stop-color="#005bb5" stop-opacity="1"></stop><stop offset="90%" stop-color="#0076c5" stop-opacity="1"></stop></linearGradient></defs><defs><linearGradient id="grad2_4" x1="0%" y1="0%" x2="50%" y2="100%"><stop offset="10%" stop-color="#005bb5" stop-opacity="1"></stop><stop offset="90%" stop-color="#183e9f" stop-opacity="1"></stop></linearGradient></defs><g transform="translate(900, 0)"><path d="M0 382.5C-29.7 381.4 -59.5 380.4 -83 363.6C-106.5 346.9 -123.8 314.5 -141.4 293.7C-159.1 272.9 -177.2 263.7 -207 259.6C-236.8 255.4 -278.4 256.2 -299.1 238.5C-319.7 220.7 -319.5 184.3 -320.7 154.5C-322 124.6 -324.8 101.2 -335.4 76.5C-345.9 51.9 -364.2 25.9 -382.5 0L0 0Z" fill="#004daa"></path><path d="M0 306C-23.8 305.2 -47.6 304.3 -66.4 290.9C-85.2 277.5 -99 251.6 -113.2 235C-127.3 218.3 -141.7 211 -165.6 207.7C-189.5 204.3 -222.7 205 -239.2 190.8C-255.8 176.6 -255.6 147.5 -256.6 123.6C-257.6 99.7 -259.9 81 -268.3 61.2C-276.7 41.5 -291.4 20.8 -306 0L0 0Z" fill="#0069bd"></path><path d="M0 229.5C-17.8 228.9 -35.7 228.2 -49.8 218.2C-63.9 208.1 -74.3 188.7 -84.9 176.2C-95.5 163.8 -106.3 158.2 -124.2 155.7C-142.1 153.2 -167 153.7 -179.4 143.1C-191.8 132.4 -191.7 110.6 -192.4 92.7C-193.2 74.8 -194.9 60.7 -201.2 45.9C-207.6 31.1 -218.5 15.6 -229.5 0L0 0Z" fill="#0083cc"></path><path d="M0 153C-11.9 152.6 -23.8 152.2 -33.2 145.5C-42.6 138.8 -49.5 125.8 -56.6 117.5C-63.6 109.2 -70.9 105.5 -82.8 103.8C-94.7 102.2 -111.4 102.5 -119.6 95.4C-127.9 88.3 -127.8 73.7 -128.3 61.8C-128.8 49.8 -129.9 40.5 -134.2 30.6C-138.4 20.8 -145.7 10.4 -153 0L0 0Z" fill="#009dd6"></path><path d="M0 76.5C-5.9 76.3 -11.9 76.1 -16.6 72.7C-21.3 69.4 -24.8 62.9 -28.3 58.7C-31.8 54.6 -35.4 52.7 -41.4 51.9C-47.4 51.1 -55.7 51.2 -59.8 47.7C-63.9 44.1 -63.9 36.9 -64.1 30.9C-64.4 24.9 -65 20.2 -67.1 15.3C-69.2 10.4 -72.8 5.2 -76.5 0L0 0Z" fill="#28aadb"></path></g><g transform="translate(0, 450)"><path d="M0 -382.5C24.5 -362.3 49.1 -342 76.8 -336.4C104.5 -330.7 135.4 -339.5 159.7 -331.6C184 -323.6 201.6 -298.8 225.1 -282.2C248.5 -265.7 277.7 -257.5 299.1 -238.5C320.4 -219.5 333.9 -189.8 331.6 -159.7C329.2 -129.5 311 -99 316.9 -72.3C322.7 -45.6 352.6 -22.8 382.5 0L0 0Z" fill="#004daa"></path><path d="M0 -306C19.6 -289.8 39.2 -273.6 61.4 -269.1C83.6 -264.5 108.3 -271.6 127.7 -265.2C147.2 -258.9 161.3 -239 180.1 -225.8C198.8 -212.6 222.2 -206 239.2 -190.8C256.3 -175.6 267.1 -151.8 265.2 -127.7C263.4 -103.6 248.8 -79.2 253.5 -57.9C258.2 -36.5 282.1 -18.3 306 0L0 0Z" fill="#0069bd"></path><path d="M0 -229.5C14.7 -217.4 29.4 -205.2 46.1 -201.8C62.7 -198.4 81.2 -203.7 95.8 -198.9C110.4 -194.1 121 -179.3 135 -169.3C149.1 -159.4 166.6 -154.5 179.4 -143.1C192.2 -131.7 200.3 -113.9 198.9 -95.8C197.5 -77.7 186.6 -59.4 190.1 -43.4C193.6 -27.4 211.6 -13.7 229.5 0L0 0Z" fill="#0083cc"></path><path d="M0 -153C9.8 -144.9 19.6 -136.8 30.7 -134.5C41.8 -132.3 54.2 -135.8 63.9 -132.6C73.6 -129.4 80.7 -119.5 90 -112.9C99.4 -106.3 111.1 -103 119.6 -95.4C128.2 -87.8 133.6 -75.9 132.6 -63.9C131.7 -51.8 124.4 -39.6 126.7 -28.9C129.1 -18.3 141 -9.1 153 0L0 0Z" fill="#009dd6"></path><path d="M0 -76.5C4.9 -72.5 9.8 -68.4 15.4 -67.3C20.9 -66.1 27.1 -67.9 31.9 -66.3C36.8 -64.7 40.3 -59.8 45 -56.4C49.7 -53.1 55.5 -51.5 59.8 -47.7C64.1 -43.9 66.8 -38 66.3 -31.9C65.8 -25.9 62.2 -19.8 63.4 -14.5C64.5 -9.1 70.5 -4.6 76.5 0L0 0Z" fill="#28aadb"></path></g></svg>