<svg id="visual" viewBox="0 0 1920 540" width="1920" height="540" xmlns="http://www.w3.org/2000/svg" xmlns:xlink="http://www.w3.org/1999/xlink" version="1.1"><rect x="0" y="0" width="1920" height="540" fill="#183E9F"></rect><defs><linearGradient id="grad1_0" x1="71.9%" y1="0%" x2="100%" y2="100%"><stop offset="-21.111111111111104%" stop-color="#28aadb" stop-opacity="1"></stop><stop offset="121.1111111111111%" stop-color="#28aadb" stop-opacity="1"></stop></linearGradient></defs><defs><linearGradient id="grad1_1" x1="71.9%" y1="0%" x2="100%" y2="100%"><stop offset="-21.111111111111104%" stop-color="#28aadb" stop-opacity="1"></stop><stop offset="121.1111111111111%" stop-color="#0088ce" stop-opacity="1"></stop></linearGradient></defs><defs><linearGradient id="grad1_2" x1="71.9%" y1="0%" x2="100%" y2="100%"><stop offset="-21.111111111111104%" stop-color="#0064bb" stop-opacity="1"></stop><stop offset="121.1111111111111%" stop-color="#0088ce" stop-opacity="1"></stop></linearGradient></defs><defs><linearGradient id="grad1_3" x1="71.9%" y1="0%" x2="100%" y2="100%"><stop offset="-21.111111111111104%" stop-color="#0064bb" stop-opacity="1"></stop><stop offset="121.1111111111111%" stop-color="#183e9f" stop-opacity="1"></stop></linearGradient></defs><defs><linearGradient id="grad2_0" x1="0%" y1="0%" x2="28.1%" y2="100%"><stop offset="-21.111111111111104%" stop-color="#28aadb" stop-opacity="1"></stop><stop offset="121.1111111111111%" stop-color="#28aadb" stop-opacity="1"></stop></linearGradient></defs><defs><linearGradient id="grad2_1" x1="0%" y1="0%" x2="28.1%" y2="100%"><stop offset="-21.111111111111104%" stop-color="#0088ce" stop-opacity="1"></stop><stop offset="121.1111111111111%" stop-color="#28aadb" stop-opacity="1"></stop></linearGradient></defs><defs><linearGradient id="grad2_2" x1="0%" y1="0%" x2="28.1%" y2="100%"><stop offset="-21.111111111111104%" stop-color="#0088ce" stop-opacity="1"></stop><stop offset="121.1111111111111%" stop-color="#0064bb" stop-opacity="1"></stop></linearGradient></defs><defs><linearGradient id="grad2_3" x1="0%" y1="0%" x2="28.1%" y2="100%"><stop offset="-21.111111111111104%" stop-color="#183e9f" stop-opacity="1"></stop><stop offset="121.1111111111111%" stop-color="#0064bb" stop-opacity="1"></stop></linearGradient></defs><g transform="translate(1920, 0)"><path d="M0 486C-31.7 439.7 -63.4 393.5 -103.3 385.4C-143.2 377.3 -191.3 407.5 -235.5 407.9C-279.7 408.3 -320.1 379.1 -342.2 342.2C-364.4 305.4 -368.2 260.9 -389.7 225C-411.2 189.1 -450.4 161.9 -469.4 125.8C-488.4 89.7 -487.2 44.9 -486 0L0 0Z" fill="#0051ae"></path><path d="M0 364.5C-23.8 329.8 -47.5 295.1 -77.5 289.1C-107.4 283 -143.4 305.6 -176.6 305.9C-209.8 306.3 -240.1 284.3 -256.7 256.7C-273.3 229 -276.1 195.7 -292.3 168.8C-308.4 141.8 -337.8 121.4 -352.1 94.3C-366.3 67.3 -365.4 33.6 -364.5 0L0 0Z" fill="#0076c5"></path><path d="M0 243C-15.8 219.9 -31.7 196.7 -51.6 192.7C-71.6 188.7 -95.6 203.7 -117.7 203.9C-139.9 204.2 -160.1 189.6 -171.1 171.1C-182.2 152.7 -184.1 130.4 -194.9 112.5C-205.6 94.6 -225.2 80.9 -234.7 62.9C-244.2 44.9 -243.6 22.4 -243 0L0 0Z" fill="#0099d5"></path><path d="M0 121.5C-7.9 109.9 -15.8 98.4 -25.8 96.4C-35.8 94.3 -47.8 101.9 -58.9 102C-69.9 102.1 -80 94.8 -85.6 85.6C-91.1 76.3 -92 65.2 -97.4 56.3C-102.8 47.3 -112.6 40.5 -117.4 31.4C-122.1 22.4 -121.8 11.2 -121.5 0L0 0Z" fill="#28aadb"></path></g><g transform="translate(0, 540)"><path d="M0 -486C43.5 -481.2 87 -476.5 123.2 -459.8C159.4 -443.1 188.3 -414.4 230 -398.4C271.7 -382.4 326.1 -379 343.7 -343.7C361.3 -308.3 342.1 -240.8 340.3 -196.5C338.6 -152.2 354.4 -131.1 381.5 -102.2C408.7 -73.3 447.4 -36.7 486 0L0 0Z" fill="#0051ae"></path><path d="M0 -364.5C32.6 -360.9 65.2 -357.4 92.4 -344.8C119.6 -332.3 141.3 -310.8 172.5 -298.8C203.7 -286.8 244.5 -284.3 257.7 -257.7C270.9 -231.2 256.6 -180.6 255.3 -147.4C254 -114.2 265.8 -98.3 286.2 -76.7C306.5 -55 335.5 -27.5 364.5 0L0 0Z" fill="#0076c5"></path><path d="M0 -243C21.7 -240.6 43.5 -238.2 61.6 -229.9C79.7 -221.5 94.2 -207.2 115 -199.2C135.8 -191.2 163 -189.5 171.8 -171.8C180.6 -154.1 171 -120.4 170.2 -98.3C169.3 -76.1 177.2 -65.6 190.8 -51.1C204.4 -36.7 223.7 -18.3 243 0L0 0Z" fill="#0099d5"></path><path d="M0 -121.5C10.9 -120.3 21.7 -119.1 30.8 -114.9C39.9 -110.8 47.1 -103.6 57.5 -99.6C67.9 -95.6 81.5 -94.8 85.9 -85.9C90.3 -77.1 85.5 -60.2 85.1 -49.1C84.7 -38.1 88.6 -32.8 95.4 -25.6C102.2 -18.3 111.8 -9.2 121.5 0L0 0Z" fill="#28aadb"></path></g></svg>