<svg id="visual" viewBox="0 0 900 450" width="900" height="450" xmlns="http://www.w3.org/2000/svg" xmlns:xlink="http://www.w3.org/1999/xlink" version="1.1"><rect x="0" y="0" width="900" height="450" fill="#183E9F"></rect><defs><linearGradient id="grad1_0" x1="50%" y1="100%" x2="100%" y2="0%"><stop offset="10%" stop-color="#28aadb" stop-opacity="1"></stop><stop offset="90%" stop-color="#28aadb" stop-opacity="1"></stop></linearGradient></defs><defs><linearGradient id="grad1_1" x1="50%" y1="100%" x2="100%" y2="0%"><stop offset="10%" stop-color="#28aadb" stop-opacity="1"></stop><stop offset="90%" stop-color="#0090d1" stop-opacity="1"></stop></linearGradient></defs><defs><linearGradient id="grad1_2" x1="50%" y1="100%" x2="100%" y2="0%"><stop offset="10%" stop-color="#0076c5" stop-opacity="1"></stop><stop offset="90%" stop-color="#0090d1" stop-opacity="1"></stop></linearGradient></defs><defs><linearGradient id="grad1_3" x1="50%" y1="100%" x2="100%" y2="0%"><stop offset="10%" stop-color="#0076c5" stop-opacity="1"></stop><stop offset="90%" stop-color="#005bb5" stop-opacity="1"></stop></linearGradient></defs><defs><linearGradient id="grad1_4" x1="50%" y1="100%" x2="100%" y2="0%"><stop offset="10%" stop-color="#183e9f" stop-opacity="1"></stop><stop offset="90%" stop-color="#005bb5" stop-opacity="1"></stop></linearGradient></defs><defs><linearGradient id="grad2_0" x1="0%" y1="100%" x2="50%" y2="0%"><stop offset="10%" stop-color="#28aadb" stop-opacity="1"></stop><stop offset="90%" stop-color="#28aadb" stop-opacity="1"></stop></linearGradient></defs><defs><linearGradient id="grad2_1" x1="0%" y1="100%" x2="50%" y2="0%"><stop offset="10%" stop-color="#0090d1" stop-opacity="1"></stop><stop offset="90%" stop-color="#28aadb" stop-opacity="1"></stop></linearGradient></defs><defs><linearGradient id="grad2_2" x1="0%" y1="100%" x2="50%" y2="0%"><stop offset="10%" stop-color="#0090d1" stop-opacity="1"></stop><stop offset="90%" stop-color="#0076c5" stop-opacity="1"></stop></linearGradient></defs><defs><linearGradient id="grad2_3" x1="0%" y1="100%" x2="50%" y2="0%"><stop offset="10%" stop-color="#005bb5" stop-opacity="1"></stop><stop offset="90%" stop-color="#0076c5" stop-opacity="1"></stop></linearGradient></defs><defs><linearGradient id="grad2_4" x1="0%" y1="100%" x2="50%" y2="0%"><stop offset="10%" stop-color="#005bb5" stop-opacity="1"></stop><stop offset="90%" stop-color="#183e9f" stop-opacity="1"></stop></linearGradient></defs><g transform="translate(900, 450)"><path d="M-382.5 0C-376.3 -39.2 -370.2 -78.3 -359.5 -116.8C-348.8 -155.3 -333.6 -193.1 -309.4 -224.8C-285.3 -256.5 -252.2 -282.2 -217.5 -299.3C-182.7 -316.5 -146.2 -325.2 -109.7 -337.6C-73.2 -350.1 -36.6 -366.3 0 -382.5L0 0Z" fill="#004daa"></path><path d="M-306 0C-301.1 -31.3 -296.2 -62.7 -287.6 -93.4C-279 -124.2 -266.9 -154.5 -247.6 -179.9C-228.2 -205.2 -201.8 -225.7 -174 -239.5C-146.2 -253.2 -117 -260.1 -87.8 -270.1C-58.5 -280.1 -29.3 -293 0 -306L0 0Z" fill="#0069bd"></path><path d="M-229.5 0C-225.8 -23.5 -222.1 -47 -215.7 -70.1C-209.3 -93.2 -200.2 -115.9 -185.7 -134.9C-171.2 -153.9 -151.3 -169.3 -130.5 -179.6C-109.6 -189.9 -87.7 -195.1 -65.8 -202.6C-43.9 -210 -22 -219.8 0 -229.5L0 0Z" fill="#0083cc"></path><path d="M-153 0C-150.5 -15.7 -148.1 -31.3 -143.8 -46.7C-139.5 -62.1 -133.4 -77.2 -123.8 -89.9C-114.1 -102.6 -100.9 -112.9 -87 -119.7C-73.1 -126.6 -58.5 -130.1 -43.9 -135.1C-29.3 -140 -14.6 -146.5 0 -153L0 0Z" fill="#009dd6"></path><path d="M-76.5 0C-75.3 -7.8 -74 -15.7 -71.9 -23.4C-69.8 -31.1 -66.7 -38.6 -61.9 -45C-57.1 -51.3 -50.4 -56.4 -43.5 -59.9C-36.5 -63.3 -29.2 -65 -21.9 -67.5C-14.6 -70 -7.3 -73.3 0 -76.5L0 0Z" fill="#28aadb"></path></g><g transform="translate(0, 0)"><path d="M382.5 0C370.5 39.9 358.6 79.7 336.7 109.4C314.8 139.1 283 158.5 266.2 193.4C249.4 228.2 247.6 278.4 224.8 309.4C202.1 340.5 158.4 352.4 117.4 361.4C76.5 370.4 38.2 376.4 0 382.5L0 0Z" fill="#004daa"></path><path d="M306 0C296.4 31.9 286.9 63.8 269.3 87.5C251.8 111.3 226.4 126.8 212.9 154.7C199.5 182.6 198.1 222.7 179.9 247.6C161.7 272.4 126.7 281.9 93.9 289.1C61.2 296.3 30.6 301.2 0 306L0 0Z" fill="#0069bd"></path><path d="M229.5 0C222.3 23.9 215.1 47.8 202 65.6C188.9 83.4 169.8 95.1 159.7 116C149.6 136.9 148.5 167 134.9 185.7C121.3 204.3 95 211.4 70.5 216.8C45.9 222.2 22.9 225.9 0 229.5L0 0Z" fill="#0083cc"></path><path d="M153 0C148.2 15.9 143.4 31.9 134.7 43.8C125.9 55.6 113.2 63.4 106.5 77.4C99.7 91.3 99 111.4 89.9 123.8C80.8 136.2 63.4 141 47 144.6C30.6 148.2 15.3 150.6 0 153L0 0Z" fill="#009dd6"></path><path d="M76.5 0C74.1 8 71.7 15.9 67.3 21.9C63 27.8 56.6 31.7 53.2 38.7C49.9 45.6 49.5 55.7 45 61.9C40.4 68.1 31.7 70.5 23.5 72.3C15.3 74.1 7.6 75.3 0 76.5L0 0Z" fill="#28aadb"></path></g></svg>