<svg id="visual" viewBox="0 0 1920 540" width="1920" height="540" xmlns="http://www.w3.org/2000/svg" xmlns:xlink="http://www.w3.org/1999/xlink" version="1.1"><rect x="0" y="0" width="1920" height="540" fill="#183E9F"></rect><defs><linearGradient id="grad1_0" x1="71.9%" y1="100%" x2="100%" y2="0%"><stop offset="-21.111111111111104%" stop-color="#28aadb" stop-opacity="1"></stop><stop offset="121.1111111111111%" stop-color="#28aadb" stop-opacity="1"></stop></linearGradient></defs><defs><linearGradient id="grad1_1" x1="71.9%" y1="100%" x2="100%" y2="0%"><stop offset="-21.111111111111104%" stop-color="#28aadb" stop-opacity="1"></stop><stop offset="121.1111111111111%" stop-color="#0088ce" stop-opacity="1"></stop></linearGradient></defs><defs><linearGradient id="grad1_2" x1="71.9%" y1="100%" x2="100%" y2="0%"><stop offset="-21.111111111111104%" stop-color="#0064bb" stop-opacity="1"></stop><stop offset="121.1111111111111%" stop-color="#0088ce" stop-opacity="1"></stop></linearGradient></defs><defs><linearGradient id="grad1_3" x1="71.9%" y1="100%" x2="100%" y2="0%"><stop offset="-21.111111111111104%" stop-color="#0064bb" stop-opacity="1"></stop><stop offset="121.1111111111111%" stop-color="#183e9f" stop-opacity="1"></stop></linearGradient></defs><defs><linearGradient id="grad2_0" x1="0%" y1="100%" x2="28.1%" y2="0%"><stop offset="-21.111111111111104%" stop-color="#28aadb" stop-opacity="1"></stop><stop offset="121.1111111111111%" stop-color="#28aadb" stop-opacity="1"></stop></linearGradient></defs><defs><linearGradient id="grad2_1" x1="0%" y1="100%" x2="28.1%" y2="0%"><stop offset="-21.111111111111104%" stop-color="#0088ce" stop-opacity="1"></stop><stop offset="121.1111111111111%" stop-color="#28aadb" stop-opacity="1"></stop></linearGradient></defs><defs><linearGradient id="grad2_2" x1="0%" y1="100%" x2="28.1%" y2="0%"><stop offset="-21.111111111111104%" stop-color="#0088ce" stop-opacity="1"></stop><stop offset="121.1111111111111%" stop-color="#0064bb" stop-opacity="1"></stop></linearGradient></defs><defs><linearGradient id="grad2_3" x1="0%" y1="100%" x2="28.1%" y2="0%"><stop offset="-21.111111111111104%" stop-color="#183e9f" stop-opacity="1"></stop><stop offset="121.1111111111111%" stop-color="#0064bb" stop-opacity="1"></stop></linearGradient></defs><g transform="translate(1920, 540)"><path d="M-486 0C-461.4 -38.8 -436.9 -77.6 -415.3 -111.3C-393.8 -145 -375.3 -173.7 -358.5 -207C-341.7 -240.3 -326.6 -278.3 -299.8 -299.8C-273 -321.3 -234.6 -326.2 -206 -356.8C-177.4 -387.4 -158.5 -443.6 -125.8 -469.4C-93.1 -495.2 -46.5 -490.6 0 -486L0 0Z" fill="#0051ae"></path><path d="M-364.5 0C-346.1 -29.1 -327.7 -58.2 -311.5 -83.5C-295.4 -108.8 -281.5 -130.3 -268.9 -155.3C-256.3 -180.2 -244.9 -208.8 -224.9 -224.9C-204.8 -241 -176 -244.7 -154.5 -267.6C-133 -290.5 -118.9 -332.7 -94.3 -352.1C-69.8 -371.4 -34.9 -368 0 -364.5L0 0Z" fill="#0076c5"></path><path d="M-243 0C-230.7 -19.4 -218.4 -38.8 -207.7 -55.6C-196.9 -72.5 -187.7 -86.8 -179.3 -103.5C-170.9 -120.2 -163.3 -139.2 -149.9 -149.9C-136.5 -160.6 -117.3 -163.1 -103 -178.4C-88.7 -193.7 -79.2 -221.8 -62.9 -234.7C-46.5 -247.6 -23.3 -245.3 0 -243L0 0Z" fill="#0099d5"></path><path d="M-121.5 0C-115.4 -9.7 -109.2 -19.4 -103.8 -27.8C-98.5 -36.3 -93.8 -43.4 -89.6 -51.8C-85.4 -60.1 -81.6 -69.6 -75 -75C-68.3 -80.3 -58.7 -81.6 -51.5 -89.2C-44.3 -96.8 -39.6 -110.9 -31.4 -117.4C-23.3 -123.8 -11.6 -122.7 0 -121.5L0 0Z" fill="#28aadb"></path></g><g transform="translate(0, 0)"><path d="M486 0C486 43.5 486.1 86.9 469.4 125.8C452.8 164.6 419.5 198.9 382.8 221C346 243.1 305.9 253.1 279.3 279.3C252.7 305.5 239.8 347.8 213.5 369.8C187.2 391.8 147.5 393.6 109.7 409.6C71.9 425.5 36 455.8 0 486L0 0Z" fill="#0051ae"></path><path d="M364.5 0C364.5 32.6 364.6 65.2 352.1 94.3C339.6 123.5 314.6 149.2 287.1 165.7C259.5 182.3 229.4 189.9 209.5 209.5C189.6 229.1 179.8 260.8 160.1 277.3C140.4 293.9 110.7 295.2 82.3 307.2C53.9 319.2 27 341.8 0 364.5L0 0Z" fill="#0076c5"></path><path d="M243 0C243 21.7 243 43.5 234.7 62.9C226.4 82.3 209.8 99.4 191.4 110.5C173 121.6 152.9 126.6 139.7 139.7C126.4 152.7 119.9 173.9 106.8 184.9C93.6 195.9 73.8 196.8 54.9 204.8C36 212.8 18 227.9 0 243L0 0Z" fill="#0099d5"></path><path d="M121.5 0C121.5 10.9 121.5 21.7 117.4 31.4C113.2 41.2 104.9 49.7 95.7 55.2C86.5 60.8 76.5 63.3 69.8 69.8C63.2 76.4 59.9 86.9 53.4 92.4C46.8 98 36.9 98.4 27.4 102.4C18 106.4 9 113.9 0 121.5L0 0Z" fill="#28aadb"></path></g></svg>