<svg id="visual" viewBox="0 0 1920 540" width="1920" height="540" xmlns="http://www.w3.org/2000/svg" xmlns:xlink="http://www.w3.org/1999/xlink" version="1.1"><rect x="0" y="0" width="1920" height="540" fill="#183E9F"></rect><path d="M0 253L26.7 247.7C53.3 242.3 106.7 231.7 160 228.7C213.3 225.7 266.7 230.3 320 233.3C373.3 236.3 426.7 237.7 480 241.5C533.3 245.3 586.7 251.7 640 248.8C693.3 246 746.7 234 800 237.7C853.3 241.3 906.7 260.7 960 269.8C1013.3 279 1066.7 278 1120 272.8C1173.3 267.7 1226.7 258.3 1280 251.2C1333.3 244 1386.7 239 1440 235.7C1493.3 232.3 1546.7 230.7 1600 235.8C1653.3 241 1706.7 253 1760 258C1813.3 263 1866.7 261 1893.3 260L1920 259L1920 541L1893.3 541C1866.7 541 1813.3 541 1760 541C1706.7 541 1653.3 541 1600 541C1546.7 541 1493.3 541 1440 541C1386.7 541 1333.3 541 1280 541C1226.7 541 1173.3 541 1120 541C1066.7 541 1013.3 541 960 541C906.7 541 853.3 541 800 541C746.7 541 693.3 541 640 541C586.7 541 533.3 541 480 541C426.7 541 373.3 541 320 541C266.7 541 213.3 541 160 541C106.7 541 53.3 541 26.7 541L0 541Z" fill="#183e9f"></path><path d="M0 292L26.7 296C53.3 300 106.7 308 160 308.5C213.3 309 266.7 302 320 305.3C373.3 308.7 426.7 322.3 480 319.7C533.3 317 586.7 298 640 296.8C693.3 295.7 746.7 312.3 800 314.7C853.3 317 906.7 305 960 305.5C1013.3 306 1066.7 319 1120 316C1173.3 313 1226.7 294 1280 293.2C1333.3 292.3 1386.7 309.7 1440 318.2C1493.3 326.7 1546.7 326.3 1600 327.2C1653.3 328 1706.7 330 1760 325.8C1813.3 321.7 1866.7 311.3 1893.3 306.2L1920 301L1920 541L1893.3 541C1866.7 541 1813.3 541 1760 541C1706.7 541 1653.3 541 1600 541C1546.7 541 1493.3 541 1440 541C1386.7 541 1333.3 541 1280 541C1226.7 541 1173.3 541 1120 541C1066.7 541 1013.3 541 960 541C906.7 541 853.3 541 800 541C746.7 541 693.3 541 640 541C586.7 541 533.3 541 480 541C426.7 541 373.3 541 320 541C266.7 541 213.3 541 160 541C106.7 541 53.3 541 26.7 541L0 541Z" fill="#005bb4"></path><path d="M0 390L26.7 385.7C53.3 381.3 106.7 372.7 160 364.7C213.3 356.7 266.7 349.3 320 344.3C373.3 339.3 426.7 336.7 480 341.7C533.3 346.7 586.7 359.3 640 366.3C693.3 373.3 746.7 374.7 800 376.5C853.3 378.3 906.7 380.7 960 382.5C1013.3 384.3 1066.7 385.7 1120 386C1173.3 386.3 1226.7 385.7 1280 378.8C1333.3 372 1386.7 359 1440 354.8C1493.3 350.7 1546.7 355.3 1600 355.3C1653.3 355.3 1706.7 350.7 1760 347.5C1813.3 344.3 1866.7 342.7 1893.3 341.8L1920 341L1920 541L1893.3 541C1866.7 541 1813.3 541 1760 541C1706.7 541 1653.3 541 1600 541C1546.7 541 1493.3 541 1440 541C1386.7 541 1333.3 541 1280 541C1226.7 541 1173.3 541 1120 541C1066.7 541 1013.3 541 960 541C906.7 541 853.3 541 800 541C746.7 541 693.3 541 640 541C586.7 541 533.3 541 480 541C426.7 541 373.3 541 320 541C266.7 541 213.3 541 160 541C106.7 541 53.3 541 26.7 541L0 541Z" fill="#0076c5"></path><path d="M0 415L26.7 414.5C53.3 414 106.7 413 160 414.2C213.3 415.3 266.7 418.7 320 424.5C373.3 430.3 426.7 438.7 480 442.2C533.3 445.7 586.7 444.3 640 442.5C693.3 440.7 746.7 438.3 800 432.2C853.3 426 906.7 416 960 415.7C1013.3 415.3 1066.7 424.7 1120 427.7C1173.3 430.7 1226.7 427.3 1280 426.7C1333.3 426 1386.7 428 1440 425C1493.3 422 1546.7 414 1600 412.7C1653.3 411.3 1706.7 416.7 1760 414.3C1813.3 412 1866.7 402 1893.3 397L1920 392L1920 541L1893.3 541C1866.7 541 1813.3 541 1760 541C1706.7 541 1653.3 541 1600 541C1546.7 541 1493.3 541 1440 541C1386.7 541 1333.3 541 1280 541C1226.7 541 1173.3 541 1120 541C1066.7 541 1013.3 541 960 541C906.7 541 853.3 541 800 541C746.7 541 693.3 541 640 541C586.7 541 533.3 541 480 541C426.7 541 373.3 541 320 541C266.7 541 213.3 541 160 541C106.7 541 53.3 541 26.7 541L0 541Z" fill="#0091d2"></path><path d="M0 487L26.7 489C53.3 491 106.7 495 160 497.2C213.3 499.3 266.7 499.7 320 498C373.3 496.3 426.7 492.7 480 486.8C533.3 481 586.7 473 640 473C693.3 473 746.7 481 800 480.8C853.3 480.7 906.7 472.3 960 472.3C1013.3 472.3 1066.7 480.7 1120 478.5C1173.3 476.3 1226.7 463.7 1280 464.7C1333.3 465.7 1386.7 480.3 1440 482C1493.3 483.7 1546.7 472.3 1600 466.7C1653.3 461 1706.7 461 1760 461.3C1813.3 461.7 1866.7 462.3 1893.3 462.7L1920 463L1920 541L1893.3 541C1866.7 541 1813.3 541 1760 541C1706.7 541 1653.3 541 1600 541C1546.7 541 1493.3 541 1440 541C1386.7 541 1333.3 541 1280 541C1226.7 541 1173.3 541 1120 541C1066.7 541 1013.3 541 960 541C906.7 541 853.3 541 800 541C746.7 541 693.3 541 640 541C586.7 541 533.3 541 480 541C426.7 541 373.3 541 320 541C266.7 541 213.3 541 160 541C106.7 541 53.3 541 26.7 541L0 541Z" fill="#28aadb"></path></svg>