<svg id="visual" viewBox="0 0 900 300" width="900" height="300" xmlns="http://www.w3.org/2000/svg" xmlns:xlink="http://www.w3.org/1999/xlink" version="1.1"><rect x="0" y="0" width="900" height="300" fill="#0D162D"></rect><path d="M0 180L13.7 180.5C27.3 181 54.7 182 82 184.7C109.3 187.3 136.7 191.7 163.8 194.2C191 196.7 218 197.3 245.2 193.7C272.3 190 299.7 182 327 182.3C354.3 182.7 381.7 191.3 409 191.3C436.3 191.3 463.7 182.7 491 178.8C518.3 175 545.7 176 573 177C600.3 178 627.7 179 654.8 181.5C682 184 709 188 736.2 187.7C763.3 187.3 790.7 182.7 818 180.8C845.3 179 872.7 180 886.3 180.5L900 181L900 301L886.3 301C872.7 301 845.3 301 818 301C790.7 301 763.3 301 736.2 301C709 301 682 301 654.8 301C627.7 301 600.3 301 573 301C545.7 301 518.3 301 491 301C463.7 301 436.3 301 409 301C381.7 301 354.3 301 327 301C299.7 301 272.3 301 245.2 301C218 301 191 301 163.8 301C136.7 301 109.3 301 82 301C54.7 301 27.3 301 13.7 301L0 301Z" fill="#28aadb"></path><path d="M0 229L13.7 228.2C27.3 227.3 54.7 225.7 82 224.7C109.3 223.7 136.7 223.3 163.8 221.5C191 219.7 218 216.3 245.2 216.2C272.3 216 299.7 219 327 218.8C354.3 218.7 381.7 215.3 409 216.8C436.3 218.3 463.7 224.7 491 225C518.3 225.3 545.7 219.7 573 216.5C600.3 213.3 627.7 212.7 654.8 214C682 215.3 709 218.7 736.2 221.5C763.3 224.3 790.7 226.7 818 227C845.3 227.3 872.7 225.7 886.3 224.8L900 224L900 301L886.3 301C872.7 301 845.3 301 818 301C790.7 301 763.3 301 736.2 301C709 301 682 301 654.8 301C627.7 301 600.3 301 573 301C545.7 301 518.3 301 491 301C463.7 301 436.3 301 409 301C381.7 301 354.3 301 327 301C299.7 301 272.3 301 245.2 301C218 301 191 301 163.8 301C136.7 301 109.3 301 82 301C54.7 301 27.3 301 13.7 301L0 301Z" fill="#0076c5"></path><path d="M0 248L13.7 249.5C27.3 251 54.7 254 82 254.5C109.3 255 136.7 253 163.8 251.3C191 249.7 218 248.3 245.2 249.3C272.3 250.3 299.7 253.7 327 254.3C354.3 255 381.7 253 409 251C436.3 249 463.7 247 491 246.2C518.3 245.3 545.7 245.7 573 246.3C600.3 247 627.7 248 654.8 249C682 250 709 251 736.2 252.5C763.3 254 790.7 256 818 256.2C845.3 256.3 872.7 254.7 886.3 253.8L900 253L900 301L886.3 301C872.7 301 845.3 301 818 301C790.7 301 763.3 301 736.2 301C709 301 682 301 654.8 301C627.7 301 600.3 301 573 301C545.7 301 518.3 301 491 301C463.7 301 436.3 301 409 301C381.7 301 354.3 301 327 301C299.7 301 272.3 301 245.2 301C218 301 191 301 163.8 301C136.7 301 109.3 301 82 301C54.7 301 27.3 301 13.7 301L0 301Z" fill="#183e9f"></path></svg>