<svg xmlns="http://www.w3.org/2000/svg" xmlns:xlink="http://www.w3.org/1999/xlink" width="2000" zoomAndPan="magnify" viewBox="0 0 1500 1499.999933" height="2000" preserveAspectRatio="xMidYMid meet" version="1.0"><path fill="#28aadb" d="M 750 747.699219 C 798.730469 747.699219 845.46875 728.34375 879.929688 693.882812 C 914.390625 659.421875 933.75 612.683594 933.75 563.953125 C 933.75 515.21875 914.390625 468.480469 879.929688 434.019531 C 845.46875 399.5625 798.730469 380.203125 750 380.203125 C 701.265625 380.203125 654.527344 399.5625 620.066406 434.019531 C 585.609375 468.480469 566.25 515.21875 566.25 563.953125 C 566.25 612.683594 585.609375 659.421875 620.066406 693.882812 C 654.527344 728.34375 701.265625 747.699219 750 747.699219 Z M 612.1875 826.945312 C 505.957031 858.09375 428.4375 956.289062 428.4375 1072.566406 C 428.4375 1096.109375 447.527344 1115.203125 471.070312 1115.203125 L 1028.925781 1115.203125 C 1052.46875 1115.203125 1071.5625 1096.109375 1071.5625 1072.566406 C 1071.5625 956.289062 994.042969 858.09375 887.8125 826.945312 L 887.8125 899.867188 C 927.433594 910.0625 956.714844 946.09375 956.714844 988.871094 L 956.714844 1046.296875 C 956.714844 1058.929688 946.382812 1069.261719 933.75 1069.261719 L 910.78125 1069.261719 C 898.148438 1069.261719 887.8125 1058.929688 887.8125 1046.296875 C 887.8125 1033.664062 898.148438 1023.328125 910.78125 1023.328125 L 910.78125 988.871094 C 910.78125 963.464844 890.25 942.9375 864.84375 942.9375 C 839.433594 942.9375 818.90625 963.464844 818.90625 988.871094 L 818.90625 1023.328125 C 831.539062 1023.328125 841.875 1033.664062 841.875 1046.296875 C 841.875 1058.929688 831.539062 1069.261719 818.90625 1069.261719 L 795.933594 1069.261719 C 783.304688 1069.261719 772.96875 1058.929688 772.96875 1046.296875 L 772.96875 988.871094 C 772.96875 946.09375 802.253906 910.0625 841.875 899.867188 L 841.875 817.898438 C 833.261719 817.039062 824.503906 816.609375 815.605469 816.609375 L 684.394531 816.609375 C 675.496094 816.609375 666.738281 817.039062 658.125 817.898438 L 658.125 911.785156 C 691.285156 921.691406 715.542969 952.410156 715.542969 988.871094 C 715.542969 1033.230469 679.515625 1069.261719 635.152344 1069.261719 C 590.796875 1069.261719 554.765625 1033.230469 554.765625 988.871094 C 554.765625 952.410156 579.023438 921.691406 612.1875 911.785156 Z M 635.152344 1023.328125 C 644.292969 1023.328125 653.054688 1019.695312 659.515625 1013.234375 C 665.976562 1006.773438 669.609375 998.011719 669.609375 988.871094 C 669.609375 979.734375 665.976562 970.972656 659.515625 964.511719 C 653.054688 958.050781 644.292969 954.421875 635.152344 954.421875 C 626.015625 954.421875 617.253906 958.050781 610.792969 964.511719 C 604.332031 970.972656 600.703125 979.734375 600.703125 988.871094 C 600.703125 998.011719 604.332031 1006.773438 610.792969 1013.234375 C 617.253906 1019.695312 626.015625 1023.328125 635.152344 1023.328125 Z M 635.152344 1023.328125 " fill-opacity="1" fill-rule="nonzero"/></svg>