<svg xmlns="http://www.w3.org/2000/svg" xmlns:xlink="http://www.w3.org/1999/xlink" width="2000" zoomAndPan="magnify" viewBox="0 0 1500 1499.999933" height="2000" preserveAspectRatio="xMidYMid meet" version="1.0"><path fill="#28aadb" d="M 598.035156 913.953125 C 608.324219 921.21875 620.617188 925.101562 633.210938 925.074219 C 645.804688 925.042969 658.078125 921.09375 668.332031 913.777344 C 678.722656 906.1875 686.605469 895.679688 690.925781 883.535156 L 717.027344 803.371094 C 723.738281 783.285156 735.007812 765.011719 749.957031 750.003906 C 764.941406 735.042969 783.1875 723.753906 803.261719 717.015625 L 884.476562 690.6875 C 893.335938 687.492188 901.34375 682.308594 907.875 675.523438 C 914.40625 668.738281 919.285156 660.539062 922.136719 651.566406 C 924.570312 643.90625 925.457031 635.835938 924.75 627.828125 C 924.039062 619.820312 921.75 612.03125 918.003906 604.917969 C 914.265625 597.800781 909.148438 591.5 902.949219 586.378906 C 896.753906 581.257812 889.601562 577.417969 881.910156 575.078125 L 801.625 548.980469 C 781.523438 542.292969 763.25 531.019531 748.253906 516.050781 C 733.257812 501.085938 721.949219 482.835938 715.214844 462.746094 L 688.828125 381.707031 C 685.378906 372.050781 679.554688 363.417969 671.886719 356.613281 C 664.214844 349.808594 654.953125 345.050781 644.957031 342.78125 C 634.957031 340.507812 624.550781 340.800781 614.691406 343.625 C 604.839844 346.445312 595.855469 351.714844 588.578125 358.933594 C 581.824219 365.59375 576.707031 373.726562 573.628906 382.699219 L 546.945312 464.4375 C 540.320312 484.023438 529.296875 501.828125 514.722656 516.492188 C 500.148438 531.15625 482.414062 542.289062 462.871094 549.039062 L 381.65625 575.199219 C 372.828125 578.433594 364.855469 583.636719 358.339844 590.417969 C 351.824219 597.195312 346.941406 605.367188 344.054688 614.316406 C 341.25 623.296875 340.550781 632.800781 342.007812 642.097656 C 343.464844 651.390625 347.042969 660.222656 352.464844 667.914062 C 359.9375 678.425781 370.503906 686.304688 382.648438 690.449219 L 462.871094 716.433594 C 483.078125 723.140625 501.425781 734.492188 516.445312 749.582031 C 531.464844 764.671875 542.730469 783.074219 549.34375 803.3125 L 575.730469 884.527344 C 579.933594 896.4375 587.761719 906.710938 598.035156 913.953125 Z M 956.351562 1149.949219 C 964.238281 1155.570312 973.679688 1158.605469 983.363281 1158.625 C 993.050781 1158.648438 1002.503906 1155.65625 1010.417969 1150.066406 C 1018.597656 1144.351562 1024.738281 1136.167969 1027.933594 1126.710938 L 1042.410156 1082.222656 C 1045.472656 1072.964844 1050.65625 1064.554688 1057.550781 1057.660156 C 1064.445312 1050.765625 1072.859375 1045.578125 1082.113281 1042.519531 L 1127.1875 1027.804688 C 1135.320312 1025.074219 1142.527344 1020.132812 1148.003906 1013.53125 C 1153.480469 1006.933594 1157.007812 998.933594 1158.191406 990.4375 C 1159.871094 979.410156 1157.527344 968.144531 1151.589844 958.703125 C 1145.648438 949.257812 1136.511719 942.265625 1125.84375 939.003906 L 1081.238281 924.464844 C 1072.015625 921.375 1063.632812 916.191406 1056.746094 909.324219 C 1049.859375 902.457031 1044.652344 894.089844 1041.535156 884.875 L 1026.824219 839.746094 C 1023.632812 830.558594 1017.648438 822.597656 1009.714844 816.972656 C 1000.738281 810.511719 989.753906 807.460938 978.730469 808.367188 C 967.707031 809.277344 957.371094 814.089844 949.578125 821.9375 C 944.398438 827.09375 940.496094 833.390625 938.191406 840.328125 L 923.769531 884.820312 C 920.792969 893.96875 915.734375 902.308594 909 909.1875 C 902.265625 916.0625 894.035156 921.292969 884.945312 924.464844 L 839.8125 939.175781 C 830.527344 942.324219 822.46875 948.316406 816.777344 956.304688 C 811.085938 964.289062 808.054688 973.863281 808.109375 983.664062 C 808.160156 993.46875 811.296875 1003.007812 817.070312 1010.929688 C 822.84375 1018.851562 830.964844 1024.753906 840.28125 1027.804688 L 884.828125 1042.226562 C 894.113281 1045.382812 902.578125 1050.578125 909.46875 1057.464844 C 916.414062 1064.414062 921.554688 1072.820312 924.53125 1082.105469 L 939.300781 1127.296875 C 942.5 1136.429688 948.457031 1144.347656 956.351562 1149.949219 Z M 956.351562 1149.949219 " fill-opacity="1" fill-rule="nonzero"/></svg>