<svg xmlns="http://www.w3.org/2000/svg" xmlns:xlink="http://www.w3.org/1999/xlink" width="2000" zoomAndPan="magnify" viewBox="0 0 1500 1499.999933" height="2000" preserveAspectRatio="xMidYMid meet" version="1.0"><path fill="#28aadb" d="M 622.453125 714.992188 C 618.699219 718.714844 615.714844 723.148438 613.679688 728.03125 C 611.648438 732.914062 610.597656 738.152344 610.597656 743.445312 C 610.597656 748.734375 611.648438 753.972656 613.679688 758.859375 C 615.714844 763.742188 618.699219 768.171875 622.453125 771.898438 C 629.960938 779.363281 640.121094 783.554688 650.707031 783.554688 C 661.296875 783.554688 671.453125 779.363281 678.960938 771.898438 C 682.71875 768.171875 685.699219 763.742188 687.734375 758.859375 C 689.769531 753.972656 690.816406 748.734375 690.816406 743.445312 C 690.816406 738.152344 689.769531 732.914062 687.734375 728.03125 C 685.699219 723.148438 682.71875 718.714844 678.960938 714.992188 C 671.453125 707.523438 661.296875 703.335938 650.707031 703.335938 C 640.121094 703.335938 629.960938 707.523438 622.453125 714.992188 Z M 721.445312 814.382812 C 713.980469 821.890625 709.789062 832.046875 709.789062 842.632812 C 709.789062 853.222656 713.980469 863.378906 721.445312 870.886719 C 725.171875 874.644531 729.601562 877.628906 734.484375 879.660156 C 739.371094 881.695312 744.605469 882.746094 749.898438 882.746094 C 755.1875 882.746094 760.429688 881.695312 765.3125 879.660156 C 770.195312 877.628906 774.628906 874.644531 778.351562 870.886719 C 785.816406 863.378906 790.007812 853.222656 790.007812 842.632812 C 790.007812 832.046875 785.816406 821.890625 778.351562 814.382812 C 774.628906 810.625 770.195312 807.640625 765.3125 805.609375 C 760.429688 803.574219 755.1875 802.523438 749.898438 802.523438 C 744.605469 802.523438 739.371094 803.574219 734.484375 805.609375 C 729.601562 807.640625 725.171875 810.625 721.445312 814.382812 Z M 1082.136719 413.609375 C 1038.539062 369.65625 979.671875 344.207031 917.785156 342.566406 C 855.898438 340.921875 795.765625 363.214844 749.898438 404.792969 C 704.246094 363.699219 644.59375 341.632812 583.1875 343.121094 C 521.78125 344.613281 463.269531 369.546875 419.664062 412.808594 C 376.34375 456.488281 351.40625 515.109375 349.992188 576.609375 C 348.574219 638.113281 370.785156 697.820312 412.050781 743.445312 C 381.199219 777.933594 360.953125 820.597656 353.746094 866.308594 C 346.539062 912.019531 352.675781 958.84375 371.421875 1001.152344 C 390.164062 1043.464844 420.71875 1079.46875 459.417969 1104.84375 C 498.117188 1130.21875 543.316406 1143.890625 589.589844 1144.214844 C 648.914062 1144.277344 706.105469 1122.113281 749.898438 1082.09375 C 795.574219 1123.304688 855.308594 1145.445312 916.8125 1143.957031 C 978.316406 1142.464844 1036.90625 1117.457031 1080.535156 1074.078125 C 1123.800781 1030.347656 1148.660156 971.699219 1150.003906 910.199219 C 1151.34375 848.695312 1129.066406 789.019531 1087.746094 743.445312 C 1129.066406 697.871094 1151.34375 638.191406 1150.003906 576.6875 C 1148.660156 515.1875 1123.800781 456.539062 1080.535156 412.808594 Z M 1023.625 469.71875 C 1051.496094 498.390625 1067.644531 536.441406 1068.90625 576.40625 C 1070.164062 616.371094 1056.445312 655.363281 1030.4375 685.734375 L 807.609375 462.90625 C 838.246094 437.488281 877.121094 424.148438 916.90625 425.402344 C 956.695312 426.65625 994.652344 442.417969 1023.625 469.71875 Z M 476.171875 1017.167969 C 448.300781 988.5 432.152344 950.449219 430.890625 910.484375 C 429.632812 870.519531 443.351562 831.527344 469.359375 801.15625 L 693.789062 1025.585938 C 662.816406 1051.15625 623.511719 1064.429688 583.375 1062.878906 C 543.242188 1061.324219 505.082031 1045.054688 476.171875 1017.167969 Z M 1023.625 1017.167969 C 993.195312 1046.273438 952.710938 1062.515625 910.605469 1062.515625 C 868.503906 1062.515625 828.019531 1046.273438 797.589844 1017.167969 L 476.976562 696.554688 C 447.117188 666.519531 430.359375 625.886719 430.359375 583.535156 C 430.359375 541.183594 447.117188 500.554688 476.976562 470.519531 C 507.011719 440.664062 547.640625 423.902344 589.992188 423.902344 C 632.34375 423.902344 672.972656 440.664062 703.007812 470.519531 L 1023.625 791.136719 C 1053.480469 821.171875 1070.238281 861.800781 1070.238281 904.152344 C 1070.238281 946.503906 1053.480469 987.132812 1023.625 1017.167969 Z M 820.835938 714.992188 C 817.078125 718.714844 814.097656 723.148438 812.0625 728.03125 C 810.027344 732.914062 808.980469 738.152344 808.980469 743.445312 C 808.980469 748.734375 810.027344 753.972656 812.0625 758.859375 C 814.097656 763.742188 817.078125 768.171875 820.835938 771.898438 C 828.34375 779.363281 838.5 783.554688 849.089844 783.554688 C 859.675781 783.554688 869.835938 779.363281 877.34375 771.898438 C 881.101562 768.171875 884.082031 763.742188 886.113281 758.859375 C 888.148438 753.972656 889.199219 748.734375 889.199219 743.445312 C 889.199219 738.152344 888.148438 732.914062 886.113281 728.03125 C 884.082031 723.148438 881.101562 718.714844 877.34375 714.992188 C 869.835938 707.523438 859.675781 703.335938 849.089844 703.335938 C 838.5 703.335938 828.34375 707.523438 820.835938 714.992188 Z M 721.445312 616 C 713.980469 623.507812 709.789062 633.667969 709.789062 644.253906 C 709.789062 654.84375 713.980469 665 721.445312 672.507812 C 725.171875 676.265625 729.601562 679.246094 734.484375 681.28125 C 739.371094 683.316406 744.605469 684.363281 749.898438 684.363281 C 755.1875 684.363281 760.429688 683.316406 765.3125 681.28125 C 770.195312 679.246094 774.628906 676.265625 778.351562 672.507812 C 785.816406 665 790.007812 654.84375 790.007812 644.253906 C 790.007812 633.667969 785.816406 623.507812 778.351562 616 C 774.628906 612.242188 770.195312 609.261719 765.3125 607.226562 C 760.429688 605.191406 755.1875 604.144531 749.898438 604.144531 C 744.605469 604.144531 739.371094 605.191406 734.484375 607.226562 C 729.601562 609.261719 725.171875 612.242188 721.445312 616 Z M 721.445312 616 " fill-opacity="1" fill-rule="nonzero"/></svg>